<?xml version="1.0" encoding="UTF-8"?>
<svg version="1.1" xmlns="http://www.w3.org/2000/svg" width="180" height="180">
<path d="M0 0 C3.27497141 2.14805007 5.13257015 3.63515994 7.5 6.8125 C11.10258224 10.67240955 14.82140209 11.20320871 19.828125 12.5625 C24.59120624 14.09752144 28.18728386 16.60746594 32.125 19.625 C33.011875 20.2025 33.89875 20.78 34.8125 21.375 C40.12064519 26.5396818 43.58869275 33.72060804 46.125 40.625 C46.125 41.615 46.125 42.605 46.125 43.625 C46.7025 43.810625 47.28 43.99625 47.875 44.1875 C51.1880586 46.30417633 52.87267709 48.97873384 54.125 52.625 C54.57014799 56.76268705 54.05559615 60.12523189 51.84765625 63.68359375 C48.77646614 67.44248038 45.88504715 70.30944298 40.87477493 70.88226891 C40.04817745 70.88562059 39.22157997 70.88897228 38.36993408 70.89242554 C37.41678314 70.90095551 36.4636322 70.90948547 35.4815979 70.91827393 C34.44256317 70.91736755 33.40352844 70.91646118 32.33300781 70.91552734 C31.233367 70.92224457 30.1337262 70.92896179 29.00076294 70.93588257 C25.35983784 70.95490401 21.71909672 70.95878912 18.078125 70.9609375 C15.54709802 70.96736335 13.01607179 70.97409155 10.48504639 70.98110962 C5.17555724 70.99309335 -0.13386332 70.99687502 -5.44335938 70.99560547 C-11.56687256 70.99440553 -17.69003245 71.0154788 -23.8134563 71.0470928 C-29.71664309 71.07647638 -35.61972284 71.08357935 -41.52298737 71.08238602 C-44.02836803 71.08474375 -46.5337514 71.0935769 -49.03908539 71.10905075 C-52.54816283 71.12869151 -56.05633706 71.12287883 -59.56542969 71.11083984 C-61.1118364 71.12769836 -61.1118364 71.12769836 -62.68948364 71.14489746 C-70.15422459 71.07996634 -75.17250771 69.36217698 -81.15234375 64.94140625 C-85.88400229 59.94254816 -86.92806676 55.58179199 -87.0703125 48.74609375 C-86.67333628 42.40241376 -85.20331548 38.52386034 -80.4375 34.25 C-76.55397504 31.13970484 -73.947419 29.625 -68.875 29.625 C-68.72804688 29.09132812 -68.58109375 28.55765625 -68.4296875 28.0078125 C-64.17857443 13.88629895 -55.67376766 3.28658218 -42.90234375 -3.96484375 C-28.12779558 -10.84692361 -13.43976679 -8.07101841 0 0 Z " fill="#333232" transform="translate(97.875,50.375)"/>
<path d="M0 0 C0.52094238 0.42667969 1.04188477 0.85335937 1.57861328 1.29296875 C17.56426842 14.5486709 29.08743466 32.71546158 31.625 53.625 C32.81941528 67.84940013 34.16576606 88.91685793 24.5859375 100.74609375 C21.93596261 102.84127094 19.29355426 102.82665504 16 103 C13.20428498 102.04357118 12.32350511 101.64701022 11 99 C10.61093573 93.45583412 11.28267292 89.36414451 13.24609375 84.17578125 C17.3212588 72.41481269 16.33406269 56.48900238 12 45 C11.58234375 43.64068359 11.58234375 43.64068359 11.15625 42.25390625 C8.89730293 35.23364402 5.54261746 29.77467313 1 24 C0.44957031 23.24976563 -0.10085937 22.49953125 -0.66796875 21.7265625 C-10.88151935 8.875075 -27.94890627 1.05992435 -44 -1 C-64.83995326 -2.10018027 -83.87016869 3.24050232 -100 17 C-102.17217524 19.22515512 -104.21841962 21.4999367 -106.2109375 23.88671875 C-111.28763703 29.88343151 -111.28763703 29.88343151 -115.4375 30.5625 C-119 30 -119 30 -122 27.9375 C-124 25 -124 25 -123.9609375 21.71484375 C-122.81525822 17.28581531 -120.76234646 14.78948445 -117.625 11.625 C-117.08407715 11.06409668 -116.5431543 10.50319336 -115.98583984 9.92529297 C-85.86597767 -20.79222039 -34.47524995 -28.68952839 0 0 Z " fill="#B5459B" transform="translate(137,36)"/>
<path d="M0 0 C0.52094238 0.42667969 1.04188477 0.85335937 1.57861328 1.29296875 C17.56426842 14.5486709 29.08743466 32.71546158 31.625 53.625 C32.81941528 67.84940013 34.16576606 88.91685793 24.5859375 100.74609375 C21.93596261 102.84127094 19.29355426 102.82665504 16 103 C13.20428498 102.04357118 12.32350511 101.64701022 11 99 C10.61093573 93.45583412 11.28267292 89.36414451 13.24609375 84.17578125 C17.3212588 72.41481269 16.33406269 56.48900238 12 45 C11.58234375 43.64068359 11.58234375 43.64068359 11.15625 42.25390625 C8.89730293 35.23364402 5.54261746 29.77467313 1 24 C0.44957031 23.24976563 -0.10085937 22.49953125 -0.66796875 21.7265625 C-10.88151935 8.875075 -27.94890627 1.05992435 -44 -1 C-64.83995326 -2.10018027 -83.87016869 3.24050232 -100 17 C-102.17217524 19.22515512 -104.21841962 21.4999367 -106.2109375 23.88671875 C-111.28763703 29.88343151 -111.28763703 29.88343151 -115.4375 30.5625 C-119 30 -119 30 -122 27.9375 C-124 25 -124 25 -123.9609375 21.71484375 C-122.81525822 17.28581531 -120.76234646 14.78948445 -117.625 11.625 C-117.08407715 11.06409668 -116.5431543 10.50319336 -115.98583984 9.92529297 C-85.86597767 -20.79222039 -34.47524995 -28.68952839 0 0 Z M-110.25 11.6875 C-111.54744141 12.94916992 -111.54744141 12.94916992 -112.87109375 14.23632812 C-113.68191406 15.04908203 -114.49273437 15.86183594 -115.328125 16.69921875 C-116.0593457 17.42971436 -116.79056641 18.16020996 -117.54394531 18.9128418 C-119.26809777 20.89116009 -119.26809777 20.89116009 -118.72949219 23.26879883 C-118.48875977 23.84009521 -118.24802734 24.4113916 -118 25 C-116.68 25.33 -115.36 25.66 -114 26 C-113.27296875 25.16597656 -112.5459375 24.33195312 -111.796875 23.47265625 C-98.23180049 8.18062063 -82.65804266 -3.21419341 -61.74511719 -5.21582031 C-48.63829033 -5.9947211 -36.21777993 -4.1591585 -24.1171875 1.09765625 C-21.8280731 2.12104982 -21.8280731 2.12104982 -18.625 3 C-15.562302 4.1667421 -14.28382182 5.67790184 -12 8 C-10.61911675 9.06140548 -9.22260607 10.10273731 -7.8125 11.125 C6.09525197 21.88124167 14.94259719 36.69379639 18 54 C18.86028347 66.30976656 18.78257405 78.3107927 14.875 90.07421875 C14.01914824 92.93597307 13.66813115 95.0391076 14 98 C15.82471891 100.21896136 15.82471891 100.21896136 18.4375 100.375 C21.07384847 100.26126356 21.07384847 100.26126356 22.52734375 98.3671875 C24.27033428 95.56545736 25.17427384 92.90910581 26.125 89.75 C26.45757812 88.67234375 26.79015625 87.5946875 27.1328125 86.484375 C32.30961891 65.68387356 28.82041375 42.89983407 17.97387695 24.50219727 C10.36001432 12.36163026 -0.41069524 1.92411762 -13 -5 C-14.32 -5 -15.64 -5 -17 -5 C-17 -5.66 -17 -6.32 -17 -7 C-17.97839844 -7.29003906 -17.97839844 -7.29003906 -18.9765625 -7.5859375 C-26.57097792 -9.84858044 -26.57097792 -9.84858044 -30.1875 -11.125 C-58.42882562 -19.91119019 -90.36973436 -8.45887944 -110.25 11.6875 Z " fill="#863379" transform="translate(137,36)"/>
<path d="M0 0 C4.20585941 2.78585537 7.21888915 5.51636052 10.125 9.625 C9.795 10.285 9.465 10.945 9.125 11.625 C3.19266584 13.10272945 -3.71964125 14.77034543 -9.59765625 12.63671875 C-11.12832832 11.70466286 -12.65563725 10.76706339 -14.1796875 9.82421875 C-20.43119594 7.0427505 -28.85031847 7.6219447 -35.3984375 9.25390625 C-43.55098619 12.84682791 -49.27007528 20.20586261 -52.921875 28.09375 C-54.11340912 31.25815208 -54.82321617 34.37459892 -55.3203125 37.71484375 C-56.01407633 40.10393186 -56.92219809 41.10667316 -58.875 42.625 C-64.01128442 43.26703555 -64.01128442 43.26703555 -66.48828125 41.42578125 C-69.59980363 37.38518458 -69.39050078 32.50897129 -68.875 27.625 C-64.59293274 13.743649 -55.39447533 3.06145222 -42.8671875 -4 C-28.06153555 -10.80364163 -13.45292607 -8.07892098 0 0 Z " fill="#A54A09" transform="translate(97.875,50.375)"/>
<path d="M0 0 C4.03668616 3.75116446 6.56226035 8.42738994 9.125 13.25 C9.74375 14.3225 10.3625 15.395 11 16.5 C12.73512006 22.28373353 12.89212975 28.26337957 12.125 34.25 C10.7890625 36.1484375 10.7890625 36.1484375 9.125 37.25 C4.06435791 37.88258026 4.06435791 37.88258026 1.58203125 36.2109375 C-0.59037962 33.28721027 -1.25762507 29.96511111 -2.1875 26.5 C-4.71318161 17.9241412 -7.53542743 12.98288366 -15.375 8.3125 C-21.63604235 5.42424981 -28.11191839 5.46551556 -34.875 6.25 C-36.55576231 6.88028587 -38.22537258 7.54222067 -39.875 8.25 C-43.5625 8.5625 -43.5625 8.5625 -46.875 8.25 C-49.33824069 4.55513897 -49.26491688 2.61706908 -48.875 -1.75 C-44.05737603 -7.71810133 -35.16789868 -8.50261351 -28.0390625 -9.453125 C-17.35906535 -10.45519881 -8.44829941 -6.56051569 0 0 Z " fill="#2AC1AA" transform="translate(131.875,70.75)"/>
<path d="M0 0 C4.24917804 3.85390566 5.46386171 6.97437275 5.96875 12.53515625 C6.14296026 18.85753702 6.13428628 24.03753482 2.6875 29.4375 C-0.54340944 32.36785973 -3.06720242 33.67992992 -7.375 33.875 C-11.38128398 33.42985734 -13.24104728 32.98241796 -16.3125 30.4375 C-19.91834671 25.88413152 -19.82972578 21.62642661 -19.8125 16.0625 C-19.84085937 15.2375 -19.86921875 14.4125 -19.8984375 13.5625 C-19.91834946 7.29023182 -18.51134385 4.11797593 -14.3125 -0.5625 C-9.05447664 -2.31517445 -4.9472698 -2.33361783 0 0 Z " fill="#2EA6FA" transform="translate(87.3125,127.5625)"/>
<path d="M0 0 C3.78279409 2.09508596 6.51289897 4.93075081 8 9 C8.2446335 11.83888642 8.3701245 14.53745756 8.375 17.375 C8.39949219 18.1175 8.42398438 18.86 8.44921875 19.625 C8.48204855 25.81888856 6.5064934 29.31447135 2.25 33.875 C-1.12537087 35.56268543 -4.34614576 35.5251048 -8 35 C-12.61274993 33.11296594 -14.61536325 30.30614157 -17 26 C-17.5547068 23.14571757 -17.56115898 20.39995476 -17.5 17.5 C-17.51546875 16.76652344 -17.5309375 16.03304687 -17.546875 15.27734375 C-17.50971583 10.08434953 -16.370201 7.13161678 -13 3 C-9.10012201 -0.24989833 -4.94658708 -1.04546263 0 0 Z " fill="#2EA6FA" transform="translate(45,126)"/>
<path d="M0 0 C2.98957036 2.56248888 4.3740006 4.4331018 4.91552734 8.35302734 C4.96483478 10.7775747 4.99630322 13.19991452 5 15.625 C5.02449219 16.46289062 5.04898438 17.30078125 5.07421875 18.1640625 C5.10102204 23.84635918 4.29786674 26.87557445 0.625 31.25 C-2.8428027 33.97470212 -7.1499141 33.70021407 -11.375 33.25 C-13.875 32.25 -13.875 32.25 -15.375 31.25 C-15.375 30.59 -15.375 29.93 -15.375 29.25 C-16.035 29.25 -16.695 29.25 -17.375 29.25 C-19.89910325 24.79221965 -19.74235122 20.89260204 -19.75 15.875 C-19.77449219 15.03710938 -19.79898438 14.19921875 -19.82421875 13.3359375 C-19.85102204 7.65364082 -19.04786674 4.62442555 -15.375 0.25 C-10.74315984 -3.38930298 -4.86330328 -2.52171281 0 0 Z " fill="#2EA6FA" transform="translate(125.375,127.75)"/>
<path d="M0 0 C1.25466064 0.00858032 1.25466064 0.00858032 2.53466797 0.01733398 C13.55522935 0.33296626 22.98298157 4.65071006 30.8125 12.5 C30.8125 13.16 30.8125 13.82 30.8125 14.5 C31.8025 14.83 32.7925 15.16 33.8125 15.5 C28.5325 16.16 23.2525 16.82 17.8125 17.5 C17.3175 15.52 17.3175 15.52 16.8125 13.5 C15.4925 13.5 14.1725 13.5 12.8125 13.5 C12.8125 12.84 12.8125 12.18 12.8125 11.5 C4.72636763 8.49120656 -4.33404438 8.12628447 -12.5 11.0625 C-20.32326654 14.68203079 -26.68718527 20.56763209 -30.1875 28.5 C-31.30417602 32.18744096 -32.29737629 35.87439531 -33.1953125 39.62109375 C-33.52273437 40.57113281 -33.85015625 41.52117187 -34.1875 42.5 C-35.6725 42.995 -35.6725 42.995 -37.1875 43.5 C-38.1775 42.84 -39.1675 42.18 -40.1875 41.5 C-39.22771716 26.62336595 -32.59311734 18.19108255 -21.75 8.375 C-18.47091014 5.5 -18.47091014 5.5 -16.1875 5.5 C-16.1875 4.84 -16.1875 4.18 -16.1875 3.5 C-10.64633052 0.71831813 -6.17347987 -0.04909451 0 0 Z " fill="#D75D0B" transform="translate(73.1875,46.5)"/>
<path d="M0 0 C6.08931314 5.65860562 11.85533472 15.30613662 12.3125 23.6875 C12.2196875 24.9559375 12.2196875 24.9559375 12.125 26.25 C9.40793404 23.89469636 8.3794437 21.74108992 7.1875 18.375 C5.67695222 14.37408966 3.96159666 11.49182476 1.125 8.25 C1.125 7.59 1.125 6.93 1.125 6.25 C0.609375 6.023125 0.09375 5.79625 -0.4375 5.5625 C-2.53806808 4.43142488 -4.23576403 3.24780055 -6.125 1.8125 C-12.65503675 -2.81465393 -18.01126775 -4.0071986 -25.9375 -4.0625 C-26.61031006 -4.06805908 -27.28312012 -4.07361816 -27.97631836 -4.0793457 C-34.05257032 -3.9924041 -40.41079554 -3.21420446 -44.875 1.25 C-44.875 2.24 -44.875 3.23 -44.875 4.25 C-40.90944161 3.6400932 -40.90944161 3.6400932 -37.0078125 2.7265625 C-30.68516811 1.31381046 -23.81773496 1.68016866 -17.875 4.25 C-17.875 4.91 -17.875 5.57 -17.875 6.25 C-16.555 6.58 -15.235 6.91 -13.875 7.25 C-14.865 7.745 -14.865 7.745 -15.875 8.25 C-16.596875 7.94578125 -17.31875 7.6415625 -18.0625 7.328125 C-21.4793013 6.01835117 -24.22333624 5.98426007 -27.875 6 C-29.07125 5.99484375 -30.2675 5.9896875 -31.5 5.984375 C-34.76815368 6.2415908 -36.90616906 6.95018816 -39.875 8.25 C-43.5625 8.5625 -43.5625 8.5625 -46.875 8.25 C-49.33824069 4.55513897 -49.26491688 2.61706908 -48.875 -1.75 C-44.05737603 -7.71810133 -35.16789868 -8.50261351 -28.0390625 -9.453125 C-17.35906535 -10.45519881 -8.44829941 -6.56051569 0 0 Z " fill="#1B9596" transform="translate(131.875,70.75)"/>
<path d="M0 0 C3.78279409 2.09508596 6.51289897 4.93075081 8 9 C8.2446335 11.83888642 8.3701245 14.53745756 8.375 17.375 C8.39949219 18.1175 8.42398438 18.86 8.44921875 19.625 C8.48204855 25.81888856 6.5064934 29.31447135 2.25 33.875 C-1.12537087 35.56268543 -4.34614576 35.5251048 -8 35 C-12.61274993 33.11296594 -14.61536325 30.30614157 -17 26 C-17.5547068 23.14571757 -17.56115898 20.39995476 -17.5 17.5 C-17.51546875 16.76652344 -17.5309375 16.03304687 -17.546875 15.27734375 C-17.50971583 10.08434953 -16.370201 7.13161678 -13 3 C-9.10012201 -0.24989833 -4.94658708 -1.04546263 0 0 Z M-10.1875 5.46875 C-12.86814437 9.21240852 -12.54868535 12.50954644 -12.4375 17 C-12.44458984 17.80695313 -12.45167969 18.61390625 -12.45898438 19.4453125 C-12.4217436 22.91729896 -12.29923298 25.39311812 -10.75 28.53515625 C-8.54967235 30.37694836 -7.40859569 30.5094923 -4.5625 30.4375 C-3.80066406 30.43621094 -3.03882813 30.43492187 -2.25390625 30.43359375 C0.78735749 29.84853261 1.96770095 29.3952096 4 27 C4.63084337 23.84813556 4.60319085 20.76750284 4.5625 17.5625 C4.58634766 16.70333984 4.61019531 15.84417969 4.63476562 14.95898438 C4.63192401 9.68795251 4.63192401 9.68795251 1.6875 5.43359375 C-2.49798906 3.20092735 -6.14097205 2.75179552 -10.1875 5.46875 Z " fill="#2381C2" transform="translate(45,126)"/>
<path d="M0 0 C4.24917804 3.85390566 5.46386171 6.97437275 5.96875 12.53515625 C6.14296026 18.85753702 6.13428628 24.03753482 2.6875 29.4375 C-0.54340944 32.36785973 -3.06720242 33.67992992 -7.375 33.875 C-11.38128398 33.42985734 -13.24104728 32.98241796 -16.3125 30.4375 C-19.91834671 25.88413152 -19.82972578 21.62642661 -19.8125 16.0625 C-19.84085937 15.2375 -19.86921875 14.4125 -19.8984375 13.5625 C-19.91834946 7.29023182 -18.51134385 4.11797593 -14.3125 -0.5625 C-9.05447664 -2.31517445 -4.9472698 -2.33361783 0 0 Z M-13.49609375 3.91015625 C-16.17368138 7.63574592 -15.89880503 10.89792655 -15.8125 15.375 C-15.82796875 16.17357422 -15.8434375 16.97214844 -15.859375 17.79492188 C-15.83317889 21.74725989 -15.57566511 23.98122939 -13.56640625 27.46484375 C-11.0552446 29.66265421 -10.0404139 30.11817536 -6.75 30.0625 C-5.60337891 30.08183594 -5.60337891 30.08183594 -4.43359375 30.1015625 C-2.13900782 29.58369805 -2.13900782 29.58369805 -0.56640625 27.46484375 C1.13178743 23.36484342 1.20169418 19.77164676 1.1875 15.375 C1.23003906 14.17133789 1.23003906 14.17133789 1.2734375 12.94335938 C1.28723305 8.78744865 1.26700262 7.07191319 -1.62109375 3.91015625 C-5.7925377 1.62766805 -9.44539508 1.1782897 -13.49609375 3.91015625 Z " fill="#2380C1" transform="translate(87.3125,127.5625)"/>
<path d="M0 0 C2.98957036 2.56248888 4.3740006 4.4331018 4.91552734 8.35302734 C4.96483478 10.7775747 4.99630322 13.19991452 5 15.625 C5.02449219 16.46289062 5.04898438 17.30078125 5.07421875 18.1640625 C5.10102204 23.84635918 4.29786674 26.87557445 0.625 31.25 C-2.8428027 33.97470212 -7.1499141 33.70021407 -11.375 33.25 C-13.875 32.25 -13.875 32.25 -15.375 31.25 C-15.375 30.59 -15.375 29.93 -15.375 29.25 C-16.035 29.25 -16.695 29.25 -17.375 29.25 C-19.89910325 24.79221965 -19.74235122 20.89260204 -19.75 15.875 C-19.77449219 15.03710938 -19.79898438 14.19921875 -19.82421875 13.3359375 C-19.85102204 7.65364082 -19.04786674 4.62442555 -15.375 0.25 C-10.74315984 -3.38930298 -4.86330328 -2.52171281 0 0 Z M-13.55859375 3.6875 C-16.3026001 7.55861434 -15.95880794 11.11961159 -15.875 15.75 C-15.89046875 16.60464844 -15.9059375 17.45929688 -15.921875 18.33984375 C-15.89727254 22.2823875 -15.88215651 24.53561825 -13.55859375 27.80859375 C-10.29622881 29.96210477 -8.1950866 29.85317157 -4.375 29.25 C-1.62193376 27.23028328 0.29846373 25.63549188 1.10424805 22.21655273 C1.29817886 19.85377349 1.30737722 17.55717926 1.25 15.1875 C1.26933594 14.38505859 1.28867188 13.58261719 1.30859375 12.75585938 C1.27417958 8.60895242 1.19112322 6.86767576 -1.69140625 3.72265625 C-5.85207228 1.43943777 -9.49186338 1.01029647 -13.55859375 3.6875 Z " fill="#2380C1" transform="translate(125.375,127.75)"/>
<path d="M0 0 C11.69602777 4.89156302 20.01360542 18.93139246 24.75390625 29.9609375 C33.18993963 50.70747769 33.56057795 73.16703101 25 94 C23 96 23 96 20.5 96.25 C18 96 18 96 16 94 C16.20200243 90.36395625 16.64545086 87.12336097 17.7421875 83.6484375 C23.61519681 64.68700743 20.82166388 44.16120758 11.71484375 26.828125 C8.90179816 22.18884252 5.50463995 18.12486407 2 14 C0.98985958 12.67433258 -0.01373214 11.34352279 -1 10 C10.41581354 15.00073248 15.76376561 28.94289231 20.1328125 39.8203125 C26.33859933 57.59416798 23.06273697 76.41237491 18 94 C20.475 93.505 20.475 93.505 23 93 C23.65161012 91.12699975 24.29602195 89.2514945 24.9375 87.375 C25.29714844 86.33085938 25.65679687 85.28671875 26.02734375 84.2109375 C28.22186346 76.96637846 28.21591819 69.88151823 28.25 62.375 C28.270625 61.26253906 28.29125 60.15007812 28.3125 59.00390625 C28.36369983 48.00874253 26.10711108 38.256099 21.3125 28.375 C20.96437256 27.64990234 20.61624512 26.92480469 20.25756836 26.17773438 C15.64018814 16.88275176 9.1267982 9.86511516 1.6875 2.71484375 C0 1 0 1 0 0 Z " fill="#D14A79" transform="translate(135,40)"/>
<path d="M0 0 C0.66 0.33 1.32 0.66 2 1 C1.26394531 1.67804687 0.52789062 2.35609375 -0.23046875 3.0546875 C-8.6398597 10.99681019 -15.61066869 19.85071429 -16.125 31.9375 C-16.063125 32.9584375 -16.063125 32.9584375 -16 34 C-14.35 34.33 -12.7 34.66 -11 35 C-10.91363281 34.32195312 -10.82726563 33.64390625 -10.73828125 32.9453125 C-9.04521297 21.73067671 -4.98518969 13.16498552 4 6 C12.03208511 0.970836 19.61008337 0.31626821 29 1 C31.65074781 1.74014387 33.5830617 2.65101118 36 4 C36 4.66 36 5.32 36 6 C37.32 6 38.64 6 40 6 C40.495 7.485 40.495 7.485 41 9 C35.3125 7.19034091 35.3125 7.19034091 33.28125 5.953125 C27.45321464 3.51812393 18.48757182 4.15485223 12.453125 5.6171875 C4.32270588 9.29213694 -1.38238764 16.55345731 -5.046875 24.46875 C-6.23840912 27.63315208 -6.94821617 30.74959892 -7.4453125 34.08984375 C-8.13907633 36.47893186 -9.04719809 37.48167316 -11 39 C-16.10779896 39.63847487 -16.10779896 39.63847487 -18.67578125 37.80078125 C-20.46193381 35.37182453 -20.30361459 33.79277437 -20.1875 30.8125 C-20.16042969 29.91144531 -20.13335938 29.01039062 -20.10546875 28.08203125 C-20.07066406 27.39496094 -20.03585938 26.70789063 -20 26 C-19.34 26 -18.68 26 -18 26 C-17.56300781 24.83984375 -17.56300781 24.83984375 -17.1171875 23.65625 C-13.15440263 13.58728719 -8.52832303 6.66117538 0 0 Z " fill="#9C2302" transform="translate(50,54)"/>
<path d="M0 0 C0.33 0.66 0.66 1.32 1 2 C-2.3 2.66 -5.6 3.32 -9 4 C-9 4.66 -9 5.32 -9 6 C-10.0725 6.268125 -11.145 6.53625 -12.25 6.8125 C-15.56650927 7.86272793 -17.56945707 8.56945707 -20 11 C-20 11.99 -20 12.98 -20 14 C-16.03444161 13.3900932 -16.03444161 13.3900932 -12.1328125 12.4765625 C-5.81016811 11.06381046 1.05726504 11.43016866 7 14 C7 14.66 7 15.32 7 16 C8.32 16.33 9.64 16.66 11 17 C10.01 17.495 10.01 17.495 9 18 C8.278125 17.69578125 7.55625 17.3915625 6.8125 17.078125 C3.3956987 15.76835117 0.65166376 15.73426007 -3 15.75 C-4.19625 15.74484375 -5.3925 15.7396875 -6.625 15.734375 C-9.89315368 15.9915908 -12.03116906 16.70018816 -15 18 C-18.6875 18.3125 -18.6875 18.3125 -22 18 C-24.46324069 14.30513897 -24.38991688 12.36706908 -24 8 C-18.53496598 1.22988323 -7.97290951 1.03307517 0 0 Z " fill="#338932" transform="translate(107,61)"/>
<path d="M0 0 C0.99 0.33 1.98 0.66 3 1 C2.27039062 1.36867188 1.54078125 1.73734375 0.7890625 2.1171875 C-7.1242754 6.51348633 -13.43490986 11.88616907 -19.875 18.25 C-20.6901709 19.0426123 -21.5053418 19.83522461 -22.34521484 20.65185547 C-23.09496582 21.41127441 -23.8447168 22.17069336 -24.6171875 22.953125 C-25.29378418 23.63536133 -25.97038086 24.31759766 -26.66748047 25.02050781 C-28.26192334 26.91955422 -28.26192334 26.91955422 -27.71142578 29.25292969 C-27.47665527 29.82946289 -27.24188477 30.40599609 -27 31 C-22.88299347 30.49928299 -21.34789373 28.46817563 -18.75 25.375 C-12.7033851 18.475783 -6.71115872 13.20515265 1.1875 8.5625 C1.78199951 8.20784668 2.37649902 7.85319336 2.98901367 7.48779297 C6.46701844 5.52279098 8.99763443 4.57036754 13 5 C10.18935893 6.87376071 7.50116542 8.16048362 4.4375 9.5625 C-3.31576702 13.42049585 -8.96637191 18.80415188 -14.890625 25.0234375 C-15.37781006 25.5285083 -15.86499512 26.0335791 -16.36694336 26.55395508 C-17.74501286 27.9920722 -19.10163381 29.45065148 -20.45703125 30.91015625 C-23 33 -23 33 -25.69921875 33.43359375 C-28 33 -28 33 -30 31 C-30 25.49098639 -28.42119823 22.61091878 -24.79296875 18.75 C-18.67775839 12.78134153 -12.13634721 7.70323699 -5 3 C-4.13761719 2.41734375 -3.27523437 1.8346875 -2.38671875 1.234375 C-1.59910156 0.82703125 -0.81148437 0.4196875 0 0 Z " fill="#521BA2" transform="translate(47,30)"/>
<path d="M0 0 C0 0.66 0 1.32 0 2 C1.32 2 2.64 2 4 2 C4.495 3.485 4.495 3.485 5 5 C-0.68696884 3.19050992 -0.68696884 3.19050992 -2.7265625 1.94921875 C-9.90307936 -1.047162 -21.61092838 0.30125478 -28.8046875 2.80078125 C-32.94095481 5.06027247 -35.97354165 8.44095261 -39 12 C-39 8.40035015 -38.45850257 8.02649029 -36 5.5625 C-26.50322157 -3.54901358 -11.79250032 -6.58186064 0 0 Z " fill="#A8580E" transform="translate(86,58)"/>
<path d="M0 0 C7.39728873 2.08048745 13.20230717 8.25270829 16.96875 14.7421875 C19.09142276 19.38955437 21 24.84557923 21 30 C23.64 30 26.28 30 29 30 C28.34 30.99 27.68 31.98 27 33 C21.95819331 33.6436349 21.95819331 33.6436349 19.453125 31.9609375 C17.28598761 29.03646715 16.6148019 25.71391877 15.6875 22.25 C13.87241346 15.96479874 11.98448347 11.43371182 7 7 C6.278125 6.21625 5.55625 5.4325 4.8125 4.625 C2.99247293 2.77647138 2.99247293 2.77647138 0 2 C0 1.34 0 0.68 0 0 Z " fill="#1D8C90" transform="translate(114,75)"/>
<path d="M0 0 C0.33 0 0.66 0 1 0 C1.08821107 3.95818926 1.14079412 7.91612062 1.1875 11.875 C1.21263672 12.98359375 1.23777344 14.0921875 1.26367188 15.234375 C1.31940016 21.55024712 0.83942528 26.83789292 -1.3503418 32.78564453 C-2.08193482 35.27927425 -2.10835808 37.41476393 -2 40 C-0.68 40.66 0.64 41.32 2 42 C-0.375 42.125 -0.375 42.125 -3 42 C-3.66 41.34 -4.32 40.68 -5 40 C-4.74118921 35.34140577 -3.78589024 31.22211088 -2.5 26.75 C-0.19308956 18.01749998 -0.25732572 8.97978035 0 0 Z " fill="#C74774" transform="translate(156,94)"/>
<path d="M0 0 C0.66 0 1.32 0 2 0 C8.41443229 8.45251545 13.78464215 17.21117044 13 28 C6.25 29.125 6.25 29.125 4 28 C4.33 27.34 4.66 26.68 5 26 C6.65 26.33 8.3 26.66 10 27 C9.04930393 18.7417147 7.18016283 12.19040587 3 5 C2.401875 3.96875 1.80375 2.9375 1.1875 1.875 C0.5996875 0.946875 0.5996875 0.946875 0 0 Z " fill="#19A7C2" transform="translate(131,77)"/>
<path d="M0 0 C0.99 0.33 1.98 0.66 3 1 C2.20078125 1.43828125 1.4015625 1.8765625 0.578125 2.328125 C-8.30065993 7.45531066 -15.05419807 13.49102494 -22 21 C-22.33 19.68 -22.66 18.36 -23 17 C-17.34293031 11.80118456 -11.41566329 7.22826749 -5 3 C-4.13761719 2.41734375 -3.27523437 1.8346875 -2.38671875 1.234375 C-1.59910156 0.82703125 -0.81148437 0.4196875 0 0 Z " fill="#5522A2" transform="translate(47,30)"/>
<path d="M0 0 C0.66 0.33 1.32 0.66 2 1 C1.26394531 1.67804687 0.52789062 2.35609375 -0.23046875 3.0546875 C-8.32179932 10.69642285 -13.37344275 18.01621515 -16 29 C-16.33 29 -16.66 29 -17 29 C-16.65633445 18.51820072 -12.21193833 10.48432822 -4.61328125 3.33984375 C-3 2 -3 2 0 0 Z " fill="#AC2301" transform="translate(50,54)"/>
<path d="M0 0 C11.52164009 -0.3690205 11.52164009 -0.3690205 17 2 C17 2.66 17 3.32 17 4 C18.32 4.33 19.64 4.66 21 5 C20.01 5.495 20.01 5.495 19 6 C18.27941406 5.69449219 17.55882813 5.38898438 16.81640625 5.07421875 C13.37284128 3.76079245 10.61413312 3.76924549 6.9375 3.8125 C5.72964844 3.81894531 4.52179688 3.82539062 3.27734375 3.83203125 C0.64941939 3.96671629 -1.50648479 4.2227197 -4 5 C-4 4.34 -4 3.68 -4 3 C-2.68 2.67 -1.36 2.34 0 2 C0 1.34 0 0.68 0 0 Z " fill="#2A875C" transform="translate(97,73)"/>
<path d="M0 0 C0.33 0.66 0.66 1.32 1 2 C-2.3 2.66 -5.6 3.32 -9 4 C-9 4.66 -9 5.32 -9 6 C-10.0725 6.268125 -11.145 6.53625 -12.25 6.8125 C-17.12963932 8.35771912 -19.18000432 9.77000649 -22 14 C-22.3125 11.6875 -22.3125 11.6875 -22 9 C-19.6167054 7.18116991 -18.04181663 6 -15 6 C-15 5.01 -15 4.02 -15 3 C-9.9943454 1.68272247 -5.13503344 0.64187918 0 0 Z " fill="#4B944B" transform="translate(107,61)"/>
<path d="M0 0 C0.99 0 1.98 0 3 0 C3.33 3.3 3.66 6.6 4 10 C6.31 10 8.62 10 11 10 C10.01 11.485 10.01 11.485 9 13 C5.92152405 13.39299693 3.90819533 13.64840923 1.3203125 11.80078125 C-0.46072197 9.37161885 -0.30351243 7.79015233 -0.1875 4.8125 C-0.16042969 3.91144531 -0.13335938 3.01039062 -0.10546875 2.08203125 C-0.07066406 1.39496094 -0.03585938 0.70789063 0 0 Z " fill="#921A02" transform="translate(30,80)"/>
<path d="M0 0 C7.10778876 0.15795086 12.52812224 3.61705314 18 8 C18.69223406 9.32024022 19.36456699 10.6515019 20 12 C20.99 12.33 21.98 12.66 23 13 C21.02 13 19.04 13 17 13 C16.76925781 12.40445313 16.53851563 11.80890625 16.30078125 11.1953125 C14.65866019 8.42392501 12.96985298 7.46849151 10.1875 5.875 C8.90939453 5.12863281 8.90939453 5.12863281 7.60546875 4.3671875 C5.11630432 3.06102925 2.62847132 1.99098559 0 1 C0 0.67 0 0.34 0 0 Z " fill="#D68C17" transform="translate(84,49)"/>
<path d="M0 0 C0.56203125 0.25007813 1.1240625 0.50015625 1.703125 0.7578125 C1.16042969 1.21671875 0.61773437 1.675625 0.05859375 2.1484375 C-0.65683594 2.76203125 -1.37226562 3.375625 -2.109375 4.0078125 C-2.81707031 4.61109375 -3.52476563 5.214375 -4.25390625 5.8359375 C-7.98475032 9.34564168 -10.09915108 13.15305762 -12.296875 17.7578125 C-12.626875 16.4378125 -12.956875 15.1178125 -13.296875 13.7578125 C-12.636875 13.7578125 -11.976875 13.7578125 -11.296875 13.7578125 C-11.38453125 13.03335938 -11.4721875 12.30890625 -11.5625 11.5625 C-11.20294213 7.76599186 -9.73433447 6.52692585 -7.046875 3.8828125 C-6.25796875 3.08101563 -5.4690625 2.27921875 -4.65625 1.453125 C-2.296875 -0.2421875 -2.296875 -0.2421875 0 0 Z " fill="#8C340A" transform="translate(57.296875,61.2421875)"/>
<path d="M0 0 C5.12652717 0.39434824 8.48381129 2.31621407 12.80859375 4.85546875 C15.49931459 6.26078284 17.98433335 6.76802564 21 7 C21 7.33 21 7.66 21 8 C16.545 8.495 16.545 8.495 12 9 C11.67 7.68 11.34 6.36 11 5 C9.68 5 8.36 5 7 5 C7 4.34 7 3.68 7 3 C4.69 2.34 2.38 1.68 0 1 C0 0.67 0 0.34 0 0 Z " fill="#CE8417" transform="translate(79,55)"/>
<path d="M0 0 C1.8871875 0.061875 1.8871875 0.061875 3.8125 0.125 C1.59358265 2.34391735 0.58649778 2.5530109 -2.375 3.3125 C-7.64897796 4.95101742 -10.66453582 7.99033143 -14.1875 12.125 C-14.1875 9.125 -14.1875 9.125 -12.76171875 7.37109375 C-12.13910156 6.77425781 -11.51648437 6.17742187 -10.875 5.5625 C-10.26011719 4.96308594 -9.64523438 4.36367188 -9.01171875 3.74609375 C-5.93854264 1.01511284 -4.06745125 -0.13335906 0 0 Z " fill="#AD4207" transform="translate(61.1875,57.875)"/>
<path d="M0 0 C2.34730065 0.61568542 4.68456957 1.27359045 7 2 C7 2.33 7 2.66 7 3 C1.72 3 -3.56 3 -9 3 C-4.32885906 -0.5033557 -4.32885906 -0.5033557 0 0 Z " fill="#2BA673" transform="translate(107,63)"/>
<path d="M0 0 C0.99 0.33 1.98 0.66 3 1 C0.03 3.475 0.03 3.475 -3 6 C-3 4.68 -3 3.36 -3 2 C-2.01 1.34 -1.02 0.68 0 0 Z " fill="#5217B5" transform="translate(27,45)"/>
<path d="M0 0 C0 0.33 0 0.66 0 1 C-1.0725 1.268125 -2.145 1.53625 -3.25 1.8125 C-8.12963932 3.35771912 -10.18000432 4.77000649 -13 9 C-13 7.35 -13 5.7 -13 4 C-8.38987758 1.04952165 -5.63470383 -0.5497272 0 0 Z " fill="#3BB249" transform="translate(98,66)"/>
<path d="M0 0 C-1.32 0.33 -2.64 0.66 -4 1 C-4 1.66 -4 2.32 -4 3 C-6.31 2.67 -8.62 2.34 -11 2 C-10.67 1.34 -10.34 0.68 -10 0 C-6.35526801 -0.89093449 -3.57257469 -1.23666047 0 0 Z " fill="#35A247" transform="translate(97,75)"/>
<path d="M0 0 C3.3 0 6.6 0 10 0 C9.01 1.485 9.01 1.485 8 3 C5 3.375 5 3.375 2 3 C1.34 2.01 0.68 1.02 0 0 Z " fill="#851D07" transform="translate(31,90)"/>
<path d="M0 0 C0.66 0.33 1.32 0.66 2 1 C-1.465 3.97 -1.465 3.97 -5 7 C-3.92643531 2.70574125 -3.4915227 2.25259529 0 0 Z " fill="#C03A03" transform="translate(50,54)"/>
<path d="M0 0 C0.99 0.33 1.98 0.66 3 1 C3 1.66 3 2.32 3 3 C4.32 3 5.64 3 7 3 C7.33 3.99 7.66 4.98 8 6 C4.08788267 4.84414715 1.1254959 3.64465038 -2 1 C-1.34 0.67 -0.68 0.34 0 0 Z " fill="#9E6317" transform="translate(83,57)"/>
<path d="M0 0 C0.33 0 0.66 0 1 0 C1 1.65 1 3.3 1 5 C0.34 5 -0.32 5 -1 5 C-1.66 6.65 -2.32 8.3 -3 10 C-3.33 9.34 -3.66 8.68 -4 8 C-3.22265625 6.0546875 -3.22265625 6.0546875 -2.0625 3.875 C-1.49208984 2.78832031 -1.49208984 2.78832031 -0.91015625 1.6796875 C-0.60980469 1.12539062 -0.30945312 0.57109375 0 0 Z " fill="#AB2D02" transform="translate(45,70)"/>
<path d="M0 0 C0.99 0.33 1.98 0.66 3 1 C1.68 1.99 0.36 2.98 -1 4 C-0.67 2.68 -0.34 1.36 0 0 Z " fill="#471893" transform="translate(29,54)"/>
</svg>
